<svg width="802" height="515" viewBox="0 0 802 515" fill="none" xmlns="http://www.w3.org/2000/svg">
<rect width="802" height="515" rx="34" ry="34" fill="black"/>
<path d="M431.401 267.518L403.788 223.104H420.642L436.701 249.657L438.662 252.837H438.768L440.623 249.71L456.841 223.104H473.271L445.234 267.518H431.401ZM430.871 299V261.423H445.976V299H430.871ZM508.565 300.272C497.223 300.272 487.754 296.544 480.157 289.089C472.596 281.598 468.815 272.2 468.815 260.893C468.815 249.586 472.613 240.258 480.21 232.909C487.807 225.524 497.223 221.832 508.459 221.832C512.028 221.832 515.455 222.274 518.741 223.157C522.062 224.005 525.101 225.259 527.857 226.92C530.613 228.545 533.669 231.072 537.026 234.499L527.168 244.887C524.73 242.272 522.663 240.435 520.967 239.375C519.306 238.315 517.469 237.52 515.455 236.99C513.441 236.425 511.197 236.142 508.724 236.142C501.834 236.142 496.039 238.421 491.34 242.979C486.676 247.502 484.344 253.455 484.344 260.84C484.344 268.225 486.658 274.249 491.287 278.913C495.951 283.577 501.763 285.909 508.724 285.909C511.233 285.909 513.6 285.573 515.826 284.902C518.052 284.195 520.137 283.224 522.08 281.987C524.023 280.715 526.108 278.825 528.334 276.316L538.616 286.333C535.047 290.29 531.797 293.152 528.864 294.919C525.967 296.686 522.804 298.028 519.377 298.947C515.985 299.83 512.381 300.272 508.565 300.272ZM545.541 299V223.104H592.075V236.142H560.699V286.068H592.446V299H545.541ZM555.452 266.776V254.904H589.69V266.776H555.452Z" fill="#5C81C1"/>
<circle cx="284.905" cy="221.515" r="106.877" fill="#E3E8F6" stroke="black" stroke-width="1.94322"/>
<path d="M288.792 162.246C319.915 162.247 345.145 187.477 345.145 218.6V272.038C345.144 303.161 319.915 328.392 288.792 328.392H234.382C203.259 328.392 178.028 303.161 178.028 272.038V218.6C178.028 187.477 203.259 162.246 234.382 162.246H288.792Z" fill="#E3E8F6" stroke="black" stroke-width="1.94322"/>
<circle cx="284.905" cy="221.515" r="105.905" fill="#E3E8F6"/>
<circle cx="285.391" cy="221.029" r="70.4416" fill="#5C81C1"/>
<circle cx="284.303" cy="220.389" r="50.5209" fill="#E3E8F6"/>
<rect x="197.261" y="259.953" width="18.2606" height="38.9559" rx="5.19143" fill="#5C81C1"/>
<path d="M208.503 391.016L203.271 374.632H206.023L209.479 386.184L209.911 387.608H209.991L210.423 386.28L214.087 374.632H216.823L220.487 386.2L220.919 387.576H221.015L221.415 386.216L224.919 374.632H227.607L222.311 391.016H219.607L215.767 379.08L215.447 377.928H215.351L214.999 379.08L211.223 391.016H208.503ZM229.781 391V368.088H232.437V377.048H232.533C233.002 376.195 233.706 375.496 234.645 374.952C235.594 374.408 236.629 374.136 237.749 374.136C239.669 374.136 241.151 374.707 242.197 375.848C243.253 376.989 243.781 378.547 243.781 380.52V391H241.109V380.92C241.109 379.544 240.767 378.477 240.085 377.72C239.402 376.952 238.415 376.568 237.125 376.568C235.855 376.568 234.757 377.096 233.829 378.152C232.901 379.208 232.437 380.44 232.437 381.848V391H229.781ZM248.359 397.816L252.359 389.032L252.455 391L245.223 374.632H248.103L252.871 385.832L253.239 386.872H253.319L253.719 385.8L258.247 374.632H261.111L251.143 397.816H248.359ZM270.312 391V374.632H272.856V377.56L272.472 377.256H272.936C273.277 376.36 273.901 375.619 274.808 375.032C275.725 374.435 276.669 374.136 277.64 374.136C277.896 374.136 278.168 374.157 278.456 374.2C278.754 374.243 279.133 374.328 279.592 374.456V377.256C278.962 377.085 278.482 376.979 278.152 376.936C277.832 376.883 277.576 376.856 277.384 376.856C276.178 376.856 275.138 377.336 274.264 378.296C273.4 379.245 272.968 380.408 272.968 381.784V391H270.312ZM288.801 391.48C286.39 391.48 284.39 390.653 282.801 389C281.211 387.347 280.417 385.277 280.417 382.792C280.417 380.275 281.211 378.205 282.801 376.584C284.401 374.952 286.401 374.136 288.801 374.136C291.19 374.136 293.185 374.957 294.785 376.6C296.395 378.243 297.201 380.307 297.201 382.792C297.201 385.277 296.406 387.347 294.817 389C293.227 390.653 291.222 391.48 288.801 391.48ZM288.801 389.048C290.411 389.048 291.766 388.467 292.865 387.304C293.963 386.131 294.513 384.627 294.513 382.792C294.513 380.936 293.958 379.437 292.849 378.296C291.739 377.155 290.39 376.584 288.801 376.584C287.201 376.584 285.846 377.16 284.737 378.312C283.638 379.453 283.089 380.947 283.089 382.792C283.089 384.627 283.633 386.131 284.721 387.304C285.819 388.467 287.179 389.048 288.801 389.048ZM300.281 391V368.088H302.937V391H300.281ZM306.874 391V368.088H309.53V391H306.874ZM326.531 391.48C325.251 391.48 324.205 391.085 323.395 390.296C322.595 389.496 322.195 388.392 322.195 386.984V370.072H324.867V386.376C324.867 387.293 325.043 387.965 325.395 388.392C325.757 388.808 326.285 389.016 326.979 389.016C327.245 389.016 327.533 388.984 327.843 388.92C328.163 388.856 328.515 388.749 328.899 388.6V391.064C328.472 391.213 328.072 391.32 327.699 391.384C327.336 391.448 326.947 391.48 326.531 391.48ZM319.363 377.048V374.632H328.867V377.048H319.363ZM331.937 391V368.088H334.593V377.048H334.689C335.158 376.195 335.862 375.496 336.801 374.952C337.75 374.408 338.785 374.136 339.905 374.136C341.825 374.136 343.307 374.707 344.353 375.848C345.409 376.989 345.937 378.547 345.937 380.52V391H343.265V380.92C343.265 379.544 342.923 378.477 342.241 377.72C341.558 376.952 340.571 376.568 339.281 376.568C338.011 376.568 336.913 377.096 335.985 378.152C335.057 379.208 334.593 380.44 334.593 381.848V391H331.937ZM357.013 391.48C354.635 391.48 352.683 390.669 351.157 389.048C349.643 387.416 348.885 385.325 348.885 382.776C348.885 380.291 349.632 378.232 351.125 376.6C352.619 374.957 354.507 374.136 356.789 374.136C359.104 374.136 360.971 374.904 362.389 376.44C363.819 377.965 364.533 379.96 364.533 382.424C364.533 382.627 364.528 382.781 364.517 382.888C364.507 382.984 364.491 383.133 364.469 383.336H350.437V381.096H361.733C361.637 379.837 361.152 378.771 360.277 377.896C359.403 377.011 358.24 376.568 356.789 376.568C355.243 376.568 353.984 377.133 353.013 378.264C352.043 379.395 351.557 380.899 351.557 382.776C351.557 384.685 352.091 386.211 353.157 387.352C354.224 388.483 355.552 389.048 357.141 389.048C358.208 389.048 359.12 388.819 359.877 388.36C360.635 387.901 361.333 387.133 361.973 386.056L364.213 387.16C363.531 388.621 362.587 389.709 361.381 390.424C360.176 391.128 358.72 391.48 357.013 391.48ZM380.367 391.48C378.735 391.48 377.332 391.128 376.159 390.424C374.996 389.709 374.084 388.605 373.423 387.112L375.823 386.04C376.313 387.107 376.948 387.885 377.727 388.376C378.505 388.867 379.439 389.112 380.527 389.112C381.615 389.112 382.457 388.904 383.055 388.488C383.663 388.061 383.967 387.443 383.967 386.632C383.967 386.024 383.705 385.507 383.183 385.08C382.671 384.653 381.609 384.243 379.999 383.848C377.876 383.325 376.345 382.685 375.407 381.928C374.468 381.16 373.999 380.136 373.999 378.856C373.999 377.437 374.596 376.296 375.791 375.432C376.996 374.568 378.463 374.136 380.191 374.136C381.631 374.136 382.868 374.435 383.903 375.032C384.948 375.629 385.743 376.499 386.287 377.64L383.967 378.712C383.583 377.965 383.065 377.416 382.415 377.064C381.775 376.701 381.007 376.52 380.111 376.52C379.161 376.52 378.356 376.723 377.695 377.128C377.044 377.523 376.719 378.061 376.719 378.744C376.719 379.352 376.964 379.859 377.455 380.264C377.956 380.669 379.108 381.085 380.911 381.512C383.119 382.035 384.633 382.707 385.455 383.528C386.287 384.339 386.703 385.32 386.703 386.472C386.703 387.997 386.111 389.213 384.927 390.12C383.743 391.027 382.223 391.48 380.367 391.48ZM394.84 391.48C393.038 391.48 391.56 390.973 390.408 389.96C389.267 388.936 388.696 387.613 388.696 385.992C388.696 384.36 389.336 383.048 390.616 382.056C391.896 381.064 393.544 380.568 395.56 380.568C396.467 380.568 397.347 380.669 398.2 380.872C399.054 381.075 399.736 381.325 400.248 381.624V380.568C400.248 379.373 399.827 378.403 398.984 377.656C398.152 376.909 397.075 376.536 395.752 376.536C394.792 376.536 393.976 376.712 393.304 377.064C392.643 377.416 391.982 377.992 391.32 378.792L389.288 377.272C390.291 376.099 391.272 375.283 392.232 374.824C393.192 374.365 394.376 374.136 395.784 374.136C397.939 374.136 399.646 374.717 400.904 375.88C402.174 377.043 402.808 378.611 402.808 380.584V391H400.248V387.112L401.176 388.6H400.168C399.656 389.475 398.92 390.173 397.96 390.696C397 391.219 395.96 391.48 394.84 391.48ZM395.08 389.096C396.499 389.096 397.715 388.595 398.728 387.592C399.742 386.589 400.248 385.368 400.248 383.928C399.715 383.565 399.07 383.283 398.312 383.08C397.555 382.867 396.766 382.76 395.944 382.76C394.558 382.76 393.459 383.037 392.648 383.592C391.848 384.136 391.448 384.947 391.448 386.024C391.448 386.941 391.79 387.683 392.472 388.248C393.155 388.813 394.024 389.096 395.08 389.096ZM406.593 391V374.632H409.137V377.352L408.865 377.048H409.217C409.697 376.205 410.417 375.512 411.377 374.968C412.337 374.413 413.34 374.136 414.385 374.136C415.569 374.136 416.609 374.429 417.505 375.016C418.401 375.592 419.041 376.371 419.425 377.352C420.033 376.317 420.822 375.523 421.793 374.968C422.764 374.413 423.846 374.136 425.041 374.136C426.876 374.136 428.278 374.696 429.249 375.816C430.23 376.925 430.721 378.483 430.721 380.488V391H428.081V380.92C428.081 379.459 427.777 378.371 427.169 377.656C426.561 376.941 425.628 376.584 424.369 376.584C423.153 376.584 422.118 377.085 421.265 378.088C420.412 379.08 419.985 380.296 419.985 381.736V391H417.313V380.968C417.313 379.496 417.009 378.397 416.401 377.672C415.804 376.936 414.881 376.568 413.633 376.568C412.417 376.568 411.382 377.08 410.529 378.104C409.676 379.128 409.249 380.36 409.249 381.8V391H406.593ZM441.763 391.48C439.385 391.48 437.433 390.669 435.907 389.048C434.393 387.416 433.635 385.325 433.635 382.776C433.635 380.291 434.382 378.232 435.875 376.6C437.369 374.957 439.257 374.136 441.539 374.136C443.854 374.136 445.721 374.904 447.139 376.44C448.569 377.965 449.283 379.96 449.283 382.424C449.283 382.627 449.278 382.781 449.267 382.888C449.257 382.984 449.241 383.133 449.219 383.336H435.187V381.096H446.483C446.387 379.837 445.902 378.771 445.027 377.896C444.153 377.011 442.99 376.568 441.539 376.568C439.993 376.568 438.734 377.133 437.763 378.264C436.793 379.395 436.307 380.899 436.307 382.776C436.307 384.685 436.841 386.211 437.907 387.352C438.974 388.483 440.302 389.048 441.891 389.048C442.958 389.048 443.87 388.819 444.627 388.36C445.385 387.901 446.083 387.133 446.723 386.056L448.963 387.16C448.281 388.621 447.337 389.709 446.131 390.424C444.926 391.128 443.47 391.48 441.763 391.48ZM466.957 391.48C464.546 391.48 462.546 390.653 460.957 389C459.367 387.347 458.573 385.277 458.573 382.792C458.573 380.275 459.367 378.205 460.957 376.584C462.557 374.952 464.557 374.136 466.957 374.136C469.346 374.136 471.341 374.957 472.941 376.6C474.551 378.243 475.357 380.307 475.357 382.792C475.357 385.277 474.562 387.347 472.973 389C471.383 390.653 469.378 391.48 466.957 391.48ZM466.957 389.048C468.567 389.048 469.922 388.467 471.021 387.304C472.119 386.131 472.669 384.627 472.669 382.792C472.669 380.936 472.114 379.437 471.005 378.296C469.895 377.155 468.546 376.584 466.957 376.584C465.357 376.584 464.002 377.16 462.893 378.312C461.794 379.453 461.245 380.947 461.245 382.792C461.245 384.627 461.789 386.131 462.877 387.304C463.975 388.467 465.335 389.048 466.957 389.048ZM478.437 391V368.088H481.093V391H478.437ZM491.927 391.48C489.697 391.48 487.847 390.669 486.375 389.048C484.903 387.427 484.167 385.347 484.167 382.808C484.167 380.269 484.908 378.195 486.391 376.584C487.873 374.973 489.719 374.168 491.927 374.168C493.121 374.168 494.215 374.445 495.207 375C496.209 375.555 496.961 376.28 497.463 377.176L497.527 377.224V368.088H500.183V391H497.639V387.912L498.007 388.52H497.575C497.052 389.427 496.279 390.147 495.255 390.68C494.241 391.213 493.132 391.48 491.927 391.48ZM492.231 389.08C493.756 389.08 495.041 388.493 496.087 387.32C497.132 386.136 497.655 384.627 497.655 382.792C497.655 380.957 497.127 379.469 496.071 378.328C495.015 377.176 493.735 376.6 492.231 376.6C490.716 376.6 489.436 377.171 488.391 378.312C487.345 379.443 486.823 380.941 486.823 382.808C486.823 384.664 487.34 386.173 488.375 387.336C489.42 388.499 490.705 389.08 492.231 389.08ZM583.802 384.088V382.552C583.802 381.507 583.983 380.643 584.346 379.96C584.719 379.267 585.412 378.44 586.426 377.48C587.439 376.531 588.084 375.805 588.362 375.304C588.639 374.792 588.778 374.216 588.778 373.576C588.778 372.52 588.474 371.699 587.866 371.112C587.258 370.515 586.404 370.216 585.306 370.216C584.378 370.216 583.599 370.467 582.97 370.968C582.351 371.469 581.823 372.248 581.386 373.304L578.874 372.264C579.439 370.771 580.282 369.619 581.402 368.808C582.532 367.987 583.839 367.576 585.322 367.576C587.199 367.576 588.714 368.131 589.866 369.24C591.028 370.349 591.61 371.789 591.61 373.56C591.61 374.488 591.375 375.379 590.906 376.232C590.447 377.085 589.652 378.04 588.522 379.096C587.796 379.768 587.29 380.36 587.002 380.872C586.724 381.373 586.586 381.992 586.586 382.728V384.088H583.802ZM585.322 391.192C584.66 391.192 584.1 390.968 583.642 390.52C583.183 390.061 582.954 389.496 582.954 388.824C582.954 388.184 583.183 387.64 583.642 387.192C584.1 386.744 584.66 386.52 585.322 386.52C585.983 386.52 586.543 386.744 587.002 387.192C587.471 387.64 587.706 388.184 587.706 388.824C587.706 389.496 587.471 390.061 587.002 390.52C586.543 390.968 585.983 391.192 585.322 391.192Z" fill="white"/>
<path d="M518.083 391.48C515.853 391.48 514.003 390.669 512.531 389.048C511.059 387.427 510.323 385.347 510.323 382.808C510.323 380.269 511.064 378.195 512.547 376.584C514.029 374.973 515.875 374.168 518.083 374.168C519.277 374.168 520.371 374.445 521.363 375C522.365 375.555 523.117 376.28 523.619 377.176L523.683 377.224V368.088H526.339V391H523.795V387.912L524.163 388.52H523.731C523.208 389.427 522.435 390.147 521.411 390.68C520.397 391.213 519.288 391.48 518.083 391.48ZM518.387 389.08C519.912 389.08 521.197 388.493 522.243 387.32C523.288 386.136 523.811 384.627 523.811 382.792C523.811 380.957 523.283 379.469 522.227 378.328C521.171 377.176 519.891 376.6 518.387 376.6C516.872 376.6 515.592 377.171 514.547 378.312C513.501 379.443 512.979 380.941 512.979 382.808C512.979 384.664 513.496 386.173 514.531 387.336C515.576 388.499 516.861 389.08 518.387 389.08ZM530.537 391V374.632H533.209V391H530.537ZM531.881 371.384C531.379 371.384 530.947 371.208 530.585 370.856C530.233 370.493 530.057 370.061 530.057 369.56C530.057 369.037 530.233 368.611 530.585 368.28C530.947 367.939 531.379 367.768 531.881 367.768C532.393 367.768 532.819 367.939 533.161 368.28C533.502 368.611 533.673 369.037 533.673 369.56C533.673 370.061 533.502 370.493 533.161 370.856C532.819 371.208 532.393 371.384 531.881 371.384ZM544.766 391.48C542.376 391.48 540.408 390.664 538.862 389.032C537.315 387.4 536.542 385.304 536.542 382.744C536.542 380.195 537.326 378.125 538.894 376.536C540.462 374.936 542.424 374.136 544.782 374.136C546.414 374.136 547.822 374.52 549.006 375.288C550.19 376.045 551.107 377.171 551.758 378.664L549.39 379.672C548.91 378.605 548.275 377.821 547.486 377.32C546.707 376.819 545.768 376.568 544.67 376.568C543.155 376.568 541.864 377.133 540.798 378.264C539.731 379.384 539.198 380.877 539.198 382.744C539.198 384.6 539.726 386.12 540.782 387.304C541.838 388.477 543.134 389.064 544.67 389.064C545.8 389.064 546.771 388.803 547.582 388.28C548.392 387.747 549.048 386.947 549.55 385.88L551.854 387C551.118 388.536 550.152 389.667 548.958 390.392C547.763 391.117 546.366 391.48 544.766 391.48ZM561.888 391.48C559.51 391.48 557.558 390.669 556.032 389.048C554.518 387.416 553.76 385.325 553.76 382.776C553.76 380.291 554.507 378.232 556 376.6C557.494 374.957 559.382 374.136 561.664 374.136C563.979 374.136 565.846 374.904 567.264 376.44C568.694 377.965 569.408 379.96 569.408 382.424C569.408 382.627 569.403 382.781 569.392 382.888C569.382 382.984 569.366 383.133 569.344 383.336H555.312V381.096H566.608C566.512 379.837 566.027 378.771 565.152 377.896C564.278 377.011 563.115 376.568 561.664 376.568C560.118 376.568 558.859 377.133 557.888 378.264C556.918 379.395 556.432 380.899 556.432 382.776C556.432 384.685 556.966 386.211 558.032 387.352C559.099 388.483 560.427 389.048 562.016 389.048C563.083 389.048 563.995 388.819 564.752 388.36C565.51 387.901 566.208 387.133 566.848 386.056L569.088 387.16C568.406 388.621 567.462 389.709 566.256 390.424C565.051 391.128 563.595 391.48 561.888 391.48Z" fill="#5C81C1"/>
</svg>
