G04*
G04 #@! TF.GenerationSoftware,Altium Limited,Altium Designer,26.4.1 (12)*
G04*
G04 Layer_Color=8388736*
%FSLAX44Y44*%
%MOMM*%
G71*
G04*
G04 #@! TF.SameCoordinates,45257D33-477B-4165-8CFB-EAB84623AA19*
G04*
G04*
G04 #@! TF.FilePolarity,Negative*
G04*
G01*
G75*
%ADD24R,1.3532X1.6532*%
%ADD25R,1.3032X1.8532*%
%ADD26R,1.6732X1.3132*%
%ADD27R,2.4132X3.3032*%
%ADD28R,1.6532X1.3532*%
%ADD29R,1.5032X1.3032*%
G04:AMPARAMS|DCode=30|XSize=1.8132mm|YSize=0.7932mm|CornerRadius=0.1754mm|HoleSize=0mm|Usage=FLASHONLY|Rotation=180.000|XOffset=0mm|YOffset=0mm|HoleType=Round|Shape=RoundedRectangle|*
%AMROUNDEDRECTD30*
21,1,1.8132,0.4425,0,0,180.0*
21,1,1.4625,0.7932,0,0,180.0*
1,1,0.3507,-0.7313,0.2213*
1,1,0.3507,0.7313,0.2213*
1,1,0.3507,0.7313,-0.2213*
1,1,0.3507,-0.7313,-0.2213*
%
%ADD30ROUNDEDRECTD30*%
%ADD31R,2.0532X3.6032*%
G04:AMPARAMS|DCode=32|XSize=2.0032mm|YSize=2.0032mm|CornerRadius=0.5516mm|HoleSize=0mm|Usage=FLASHONLY|Rotation=180.000|XOffset=0mm|YOffset=0mm|HoleType=Round|Shape=RoundedRectangle|*
%AMROUNDEDRECTD32*
21,1,2.0032,0.9000,0,0,180.0*
21,1,0.9000,2.0032,0,0,180.0*
1,1,1.1032,-0.4500,0.4500*
1,1,1.1032,0.4500,0.4500*
1,1,1.1032,0.4500,-0.4500*
1,1,1.1032,-0.4500,-0.4500*
%
%ADD32ROUNDEDRECTD32*%
%ADD33C,2.0032*%
%ADD34C,3.4200*%
%ADD35C,4.4200*%
G04:AMPARAMS|DCode=36|XSize=2.5mm|YSize=1.2mm|CornerRadius=0.35mm|HoleSize=0mm|Usage=FLASHONLY|Rotation=180.000|XOffset=0mm|YOffset=0mm|HoleType=Round|Shape=RoundedRectangle|*
%AMROUNDEDRECTD36*
21,1,2.5000,0.5000,0,0,180.0*
21,1,1.8000,1.2000,0,0,180.0*
1,1,0.7000,-0.9000,0.2500*
1,1,0.7000,0.9000,0.2500*
1,1,0.7000,0.9000,-0.2500*
1,1,0.7000,-0.9000,-0.2500*
%
%ADD36ROUNDEDRECTD36*%
%ADD37O,1.9000X0.9000*%
%ADD38O,0.9000X1.5000*%
%ADD39C,1.7120*%
%ADD40C,1.5112*%
%ADD41C,1.5700*%
%ADD42R,1.3540X1.3540*%
%ADD43C,1.3540*%
%ADD44R,1.5700X1.5700*%
%ADD45R,1.5112X1.5112*%
%ADD46C,4.0000*%
%ADD47C,2.2000*%
%ADD48R,1.7120X1.7120*%
%ADD49C,1.9032*%
%ADD50C,0.6000*%
%ADD51C,2.0000*%
D24*
X546404Y420878D02*
D03*
X563904Y420878D02*
D03*
X427622Y345948D02*
D03*
X552730Y243332D02*
D03*
X445507Y276288D02*
D03*
X579514Y277876D02*
D03*
X300710Y114554D02*
D03*
X283210Y114554D02*
D03*
X428007Y310388D02*
D03*
X428007Y276288D02*
D03*
X570230Y243332D02*
D03*
X597014Y277876D02*
D03*
X445122Y345948D02*
D03*
X445507Y310388D02*
D03*
D25*
X574904Y393713D02*
D03*
X310414Y141732D02*
D03*
X546404Y393713D02*
D03*
X281914Y141732D02*
D03*
D26*
X486724Y165862D02*
D03*
X465582Y165862D02*
D03*
X508524Y165862D02*
D03*
X508524Y183862D02*
D03*
X486724Y183862D02*
D03*
X465582Y183862D02*
D03*
D27*
X471424Y219456D02*
D03*
D28*
X539496Y211328D02*
D03*
X696364Y144830D02*
D03*
X546054Y365892D02*
D03*
X546054Y348392D02*
D03*
X572262Y211950D02*
D03*
X572262Y194450D02*
D03*
X539496Y193828D02*
D03*
X696364Y162330D02*
D03*
D29*
X521462Y287868D02*
D03*
X521462Y266868D02*
D03*
D30*
X497974Y238506D02*
D03*
X497974Y225806D02*
D03*
X444874Y225806D02*
D03*
X497974Y200406D02*
D03*
X497974Y213106D02*
D03*
X444874Y200406D02*
D03*
X444874Y213106D02*
D03*
X444874Y238506D02*
D03*
D31*
X398082Y246456D02*
D03*
X342582Y246456D02*
D03*
D32*
X238760Y186944D02*
D03*
X238760Y231140D02*
D03*
D33*
X503080Y428128D02*
D03*
X503080Y399796D02*
D03*
D34*
X58464Y223260D02*
D03*
X58464Y428460D02*
D03*
D35*
X370684Y37450D02*
D03*
X370684Y614270D02*
D03*
D36*
X696364Y179430D02*
D03*
X696364Y265830D02*
D03*
D37*
X650864Y179430D02*
D03*
X650864Y265830D02*
D03*
D38*
X655864Y182630D02*
D03*
X655864Y262630D02*
D03*
D39*
X637374Y325860D02*
D03*
X637374Y300860D02*
D03*
D40*
X609920Y138938D02*
D03*
X629920Y138938D02*
D03*
D41*
X306324Y172720D02*
D03*
X280924Y172720D02*
D03*
X407924Y172720D02*
D03*
X331724Y172720D02*
D03*
X382524Y172720D02*
D03*
X357124Y172720D02*
D03*
D42*
X407670Y506664D02*
D03*
D43*
X407670Y486664D02*
D03*
D44*
X433324Y172720D02*
D03*
D45*
X649920Y138938D02*
D03*
D46*
X461374Y124480D02*
D03*
X454264Y531340D02*
D03*
X105474Y321760D02*
D03*
D47*
X282314Y558730D02*
D03*
X294584Y90270D02*
D03*
D48*
X637374Y350860D02*
D03*
D49*
X670920Y138938D02*
D03*
X588920Y138938D02*
D03*
D50*
X664364Y188630D02*
D03*
X664364Y256630D02*
D03*
D51*
X151373Y84109D02*
D03*
X611124Y453136D02*
D03*
X159766Y570738D02*
D03*
M02*
