G04*
G04 #@! TF.GenerationSoftware,Altium Limited,Altium Designer,26.4.1 (12)*
G04*
G04 Layer_Color=8421504*
%FSLAX44Y44*%
%MOMM*%
G71*
G04*
G04 #@! TF.SameCoordinates,45257D33-477B-4165-8CFB-EAB84623AA19*
G04*
G04*
G04 #@! TF.FilePolarity,Positive*
G04*
G01*
G75*
%ADD17R,1.1500X1.4500*%
%ADD18R,1.1000X1.6500*%
%ADD19R,1.4700X1.1100*%
%ADD20R,1.4500X1.1500*%
%ADD21R,1.3000X1.1000*%
G04:AMPARAMS|DCode=22|XSize=1.61mm|YSize=0.59mm|CornerRadius=0.0738mm|HoleSize=0mm|Usage=FLASHONLY|Rotation=180.000|XOffset=0mm|YOffset=0mm|HoleType=Round|Shape=RoundedRectangle|*
%AMROUNDEDRECTD22*
21,1,1.6100,0.4425,0,0,180.0*
21,1,1.4625,0.5900,0,0,180.0*
1,1,0.1475,-0.7313,0.2213*
1,1,0.1475,0.7313,0.2213*
1,1,0.1475,0.7313,-0.2213*
1,1,0.1475,-0.7313,-0.2213*
%
%ADD22ROUNDEDRECTD22*%
%ADD23R,1.8500X3.4000*%
G36*
X464439Y229256D02*
X478409Y229256D01*
X478409Y209656D01*
X464439Y209656D01*
X464439Y229256D01*
X464439Y229256D02*
G37*
D17*
X546404Y420878D02*
D03*
X563904Y420878D02*
D03*
X427622Y345948D02*
D03*
X552730Y243332D02*
D03*
X445507Y276288D02*
D03*
X579514Y277876D02*
D03*
X300710Y114554D02*
D03*
X283210Y114554D02*
D03*
X428007Y310388D02*
D03*
X428007Y276288D02*
D03*
X570230Y243332D02*
D03*
X597014Y277876D02*
D03*
X445122Y345948D02*
D03*
X445507Y310388D02*
D03*
D18*
X574904Y393713D02*
D03*
X310414Y141732D02*
D03*
X546404Y393713D02*
D03*
X281914Y141732D02*
D03*
D19*
X486724Y165862D02*
D03*
X465582Y165862D02*
D03*
X508524Y165862D02*
D03*
X508524Y183862D02*
D03*
X486724Y183862D02*
D03*
X465582Y183862D02*
D03*
D20*
X539496Y211328D02*
D03*
X696364Y144830D02*
D03*
X546054Y365892D02*
D03*
X546054Y348392D02*
D03*
X572262Y211950D02*
D03*
X572262Y194450D02*
D03*
X539496Y193828D02*
D03*
X696364Y162330D02*
D03*
D21*
X521462Y287868D02*
D03*
X521462Y266868D02*
D03*
D22*
X497974Y238506D02*
D03*
X497974Y225806D02*
D03*
X444874Y225806D02*
D03*
X497974Y200406D02*
D03*
X497974Y213106D02*
D03*
X444874Y200406D02*
D03*
X444874Y213106D02*
D03*
X444874Y238506D02*
D03*
D23*
X398082Y246456D02*
D03*
X342582Y246456D02*
D03*
M02*
