G04*
G04 #@! TF.GenerationSoftware,Altium Limited,Altium Designer,26.4.1 (12)*
G04*
G04 Layer_Color=16711935*
%FSLAX44Y44*%
%MOMM*%
G71*
G04*
G04 #@! TF.SameCoordinates,45257D33-477B-4165-8CFB-EAB84623AA19*
G04*
G04*
G04 #@! TF.FilePolarity,Negative*
G04*
G01*
G75*
%ADD25R,1.3032X1.8532*%
%ADD28R,1.6532X1.3532*%
G04:AMPARAMS|DCode=32|XSize=2.0032mm|YSize=2.0032mm|CornerRadius=0.5516mm|HoleSize=0mm|Usage=FLASHONLY|Rotation=180.000|XOffset=0mm|YOffset=0mm|HoleType=Round|Shape=RoundedRectangle|*
%AMROUNDEDRECTD32*
21,1,2.0032,0.9000,0,0,180.0*
21,1,0.9000,2.0032,0,0,180.0*
1,1,1.1032,-0.4500,0.4500*
1,1,1.1032,0.4500,0.4500*
1,1,1.1032,0.4500,-0.4500*
1,1,1.1032,-0.4500,-0.4500*
%
%ADD32ROUNDEDRECTD32*%
%ADD33C,2.0032*%
%ADD34C,3.4200*%
%ADD35C,4.4200*%
G04:AMPARAMS|DCode=36|XSize=2.5mm|YSize=1.2mm|CornerRadius=0.35mm|HoleSize=0mm|Usage=FLASHONLY|Rotation=180.000|XOffset=0mm|YOffset=0mm|HoleType=Round|Shape=RoundedRectangle|*
%AMROUNDEDRECTD36*
21,1,2.5000,0.5000,0,0,180.0*
21,1,1.8000,1.2000,0,0,180.0*
1,1,0.7000,-0.9000,0.2500*
1,1,0.7000,0.9000,0.2500*
1,1,0.7000,0.9000,-0.2500*
1,1,0.7000,-0.9000,-0.2500*
%
%ADD36ROUNDEDRECTD36*%
%ADD37O,1.9000X0.9000*%
%ADD38O,0.9000X1.5000*%
%ADD39C,1.7120*%
%ADD40C,1.5112*%
%ADD41C,1.5700*%
%ADD42R,1.3540X1.3540*%
%ADD43C,1.3540*%
%ADD44R,1.5700X1.5700*%
%ADD45R,1.5112X1.5112*%
%ADD46C,4.0000*%
%ADD47C,2.2000*%
%ADD48R,1.7120X1.7120*%
%ADD49C,1.9032*%
%ADD50C,0.6000*%
%ADD51C,2.0000*%
%ADD80R,1.7032X1.1032*%
%ADD81R,1.1032X1.7032*%
%ADD82R,1.1032X1.1032*%
%ADD83R,2.2032X1.7032*%
%ADD84R,1.0500X0.4000*%
%ADD85R,0.9500X0.4000*%
G04:AMPARAMS|DCode=86|XSize=4.0032mm|YSize=2.2032mm|CornerRadius=0.3416mm|HoleSize=0mm|Usage=FLASHONLY|Rotation=270.000|XOffset=0mm|YOffset=0mm|HoleType=Round|Shape=RoundedRectangle|*
%AMROUNDEDRECTD86*
21,1,4.0032,1.5200,0,0,270.0*
21,1,3.3200,2.2032,0,0,270.0*
1,1,0.6832,-0.7600,-1.6600*
1,1,0.6832,-0.7600,1.6600*
1,1,0.6832,0.7600,1.6600*
1,1,0.6832,0.7600,-1.6600*
%
%ADD86ROUNDEDRECTD86*%
D25*
X239994Y387060D02*
D03*
X232944Y357632D02*
D03*
X204444Y357632D02*
D03*
X268494Y387060D02*
D03*
D28*
X513797Y376892D02*
D03*
X270256Y205372D02*
D03*
X513797Y359392D02*
D03*
X270256Y222872D02*
D03*
D32*
X238760Y186944D02*
D03*
X238760Y231140D02*
D03*
D33*
X503080Y428128D02*
D03*
X503080Y399796D02*
D03*
D34*
X58464Y223260D02*
D03*
X58464Y428460D02*
D03*
D35*
X370684Y37450D02*
D03*
X370684Y614270D02*
D03*
D36*
X696364Y179430D02*
D03*
X696364Y265830D02*
D03*
D37*
X650864Y179430D02*
D03*
X650864Y265830D02*
D03*
D38*
X655864Y182630D02*
D03*
X655864Y262630D02*
D03*
D39*
X637374Y325860D02*
D03*
X637374Y300860D02*
D03*
D40*
X609920Y138938D02*
D03*
X629920Y138938D02*
D03*
D41*
X306324Y172720D02*
D03*
X280924Y172720D02*
D03*
X407924Y172720D02*
D03*
X331724Y172720D02*
D03*
X382524Y172720D02*
D03*
X357124Y172720D02*
D03*
D42*
X407670Y506664D02*
D03*
D43*
X407670Y486664D02*
D03*
D44*
X433324Y172720D02*
D03*
D45*
X649920Y138938D02*
D03*
D46*
X461374Y124480D02*
D03*
X454264Y531340D02*
D03*
X105474Y321760D02*
D03*
D47*
X282314Y558730D02*
D03*
X294584Y90270D02*
D03*
D48*
X637374Y350860D02*
D03*
D49*
X670920Y138938D02*
D03*
X588920Y138938D02*
D03*
D50*
X664364Y188630D02*
D03*
X664364Y256630D02*
D03*
D51*
X151373Y84109D02*
D03*
X611124Y453136D02*
D03*
X159766Y570738D02*
D03*
D80*
X472874Y361660D02*
D03*
X472874Y234660D02*
D03*
X472874Y221960D02*
D03*
X472874Y336260D02*
D03*
X472874Y323560D02*
D03*
X297874Y374360D02*
D03*
X297874Y361660D02*
D03*
X297874Y348960D02*
D03*
X297874Y336260D02*
D03*
X297874Y323560D02*
D03*
X297874Y310860D02*
D03*
X297874Y298160D02*
D03*
X297874Y285460D02*
D03*
X297874Y272760D02*
D03*
X297874Y260060D02*
D03*
X297874Y247360D02*
D03*
X297874Y234660D02*
D03*
X297874Y221960D02*
D03*
X472874Y247360D02*
D03*
X472874Y260060D02*
D03*
X472874Y272760D02*
D03*
X472874Y285460D02*
D03*
X472874Y298160D02*
D03*
X472874Y310860D02*
D03*
X472874Y348960D02*
D03*
X472874Y374360D02*
D03*
X472874Y387060D02*
D03*
X297874Y387060D02*
D03*
D81*
X391724Y209460D02*
D03*
X379024Y209460D02*
D03*
X417124Y209460D02*
D03*
X366324Y209460D02*
D03*
X404424Y209460D02*
D03*
X429824Y209460D02*
D03*
X315524Y209460D02*
D03*
X328224Y209460D02*
D03*
X340924Y209460D02*
D03*
X353624Y209460D02*
D03*
X442524Y209460D02*
D03*
X455224Y209460D02*
D03*
D82*
X400374Y323860D02*
D03*
X414374Y323860D02*
D03*
X386374Y323860D02*
D03*
X414374Y309860D02*
D03*
X400374Y309860D02*
D03*
X414374Y295860D02*
D03*
X400374Y295860D02*
D03*
X386374Y309860D02*
D03*
X386374Y295860D02*
D03*
D83*
X268994Y457594D02*
D03*
X268994Y434594D02*
D03*
X268994Y411594D02*
D03*
D84*
X644614Y193880D02*
D03*
X644614Y248880D02*
D03*
X644614Y233880D02*
D03*
X644614Y208880D02*
D03*
X644614Y228880D02*
D03*
X644614Y243880D02*
D03*
X644614Y238880D02*
D03*
X644614Y213880D02*
D03*
X644614Y203880D02*
D03*
X644614Y198880D02*
D03*
X644614Y223880D02*
D03*
X644614Y218880D02*
D03*
D85*
X658114Y196380D02*
D03*
X658114Y251380D02*
D03*
X658114Y236380D02*
D03*
X658114Y211380D02*
D03*
X658114Y216380D02*
D03*
X658114Y246380D02*
D03*
X658114Y241380D02*
D03*
X658114Y231380D02*
D03*
X658114Y206380D02*
D03*
X658114Y201380D02*
D03*
X658114Y221380D02*
D03*
X658114Y226380D02*
D03*
D86*
X205994Y434594D02*
D03*
M02*
