M48
;Layer_Color=9474304
;FILE_FORMAT=4:4
METRIC,LZ
;TYPE=PLATED
T01F00S00C0.4000
T03F00S00C0.7112
T04F00S00C0.8000
T05F00S00C1.0000
T06F00S00C1.0200
T07F00S00C1.1000
T08F00S00C1.5000
T09F00S00C2.0000
T10F00S00C2.2000
T11F00S00C3.2000
;TYPE=NON_PLATED
T12F00S00C0.5500
T13F00S00C2.2000
T14F00S00C4.0000
%
T01
X00136373Y0007586
X00166373Y0007586
X00196373Y0007586
X00226373Y0007586
X00256373Y0007586
X00241373Y0010586
X00211373Y0010586
X00181373Y0010586
X00151373Y0010586
X00121373Y0010586
X00136373Y0013586
X00166373Y0013586
X00196373Y0013586
X00226373Y0013586
X00256373Y0013586
X00241373Y0016586
X00211373Y0016586
X00181373Y0016586
X00151373Y0016586
X00121373Y0016586
X00091373Y0016586
X00061373Y0016586
X00076373Y0019586
X00106373Y0019586
X00136373Y0019586
X00166373Y0019586
X00196373Y0019586
X00181373Y0022586
X00151373Y0022586
X00121373Y0022586
X00091373Y0022586
X00106373Y0025586
X00136373Y0025586
X00166373Y0025586
X00181373Y0028586
X00151373Y0028586
X00121373Y0028586
X00091373Y0028586
X00061373Y0028586
X00031373Y0028586
X00046373Y0025586
X00076373Y0025586
X00031373Y0022586
X00046373Y0019586
X00076373Y0013586
X00106373Y0013586
X00181373Y0004586
X00211373Y0004586
X00241373Y0004586
X00256373Y0001586
X00256373Y0019586
X00256373Y0025586
X00226373Y0025586
X00241373Y0028586
X00331373Y0028586
X00361373Y0028586
X00376373Y0025586
X00361373Y0022586
X00316373Y0025586
X00316373Y0019586
X00286373Y0019586
X00271373Y0010586
X00331373Y0010586
X00361373Y0010586
X00391373Y0010586
X00421373Y0010586
X00436373Y0013586
X00406373Y0013586
X00376373Y0013586
X00346373Y0013586
X00346373Y0007586
X00376373Y0007586
X00406373Y0007586
X00436373Y0007586
X00466373Y0007586
X00496373Y0007586
X00526373Y0007586
X00541373Y0010586
X00571373Y0010586
X00601373Y0010586
X00631373Y0010586
X00617554Y00193828
X00601218Y0021195
X00601218Y00240284
X00586373Y0025586
X00617554Y0025663
X00631373Y0028586
X00541373Y0028586
X00535178Y0017018
X00526373Y0013586
X00556373Y0013586
X00496373Y0013586
X00511373Y0010586
X00481373Y0010586
X00481373Y0004586
X00451373Y0004586
X00421373Y0004586
X00406373Y0001586
X00346373Y0001586
X00316373Y0001586
X00286373Y0001586
X00301373Y0004586
X00331373Y0004586
X00316373Y0007586
X00271373Y0004586
X00451373Y0016586
X00466373Y0019586
X00661373Y0016586
X00661373Y0010586
X00691373Y0010586
X00706373Y0019586
X00691373Y0022586
X00680212Y0021638
X00678593Y00239742
X00686054Y00247396
X00676373Y0025586
X00616373Y0031586
X00586373Y0031586
X00586373Y0037586
X00616373Y0037586
X00646373Y0037586
X00631373Y0040586
X00601373Y0040586
X00616373Y0043586
X00586373Y0043586
X00556373Y0043586
X00526373Y0043586
X00541373Y0046586
X00571373Y0046586
X00601373Y0046586
X00586373Y0049586
X00556373Y0049586
X00526373Y0049586
X00496373Y0049586
X00466373Y0049586
X00436373Y0049586
X00451373Y0046586
X00421373Y0046586
X00391373Y0046586
X00361373Y0046586
X00331373Y0046586
X00301373Y0046586
X00316373Y0049586
X00346373Y0049586
X00376373Y0049586
X00391373Y0052586
X00421373Y0052586
X00436373Y0055586
X00466373Y0055586
X00496373Y0055586
X00526373Y0055586
X00556373Y0055586
X00571373Y0052586
X00541373Y0052586
X00511373Y0052586
X00481373Y0052586
X00481373Y0058586
X00511373Y0058586
X00451373Y0058586
X00421373Y0058586
X00391373Y0058586
X00361373Y0058586
X00331373Y0058586
X00301373Y0058586
X00271373Y0058586
X00286373Y0061586
X00316373Y0061586
X00316373Y0055586
X00346373Y0055586
X00376373Y0055586
X00406373Y0055586
X00406373Y0061586
X00436373Y0061586
X00466373Y0061586
X00511373Y0046586
X00526373Y0031586
X00496373Y0031586
X00391373Y0034586
X00361373Y0034586
X00331373Y0034586
X00346373Y0037586
X00376373Y0037586
X00316373Y0037586
X00316373Y0031586
X00346373Y0031586
X00268494Y00345732
X00286373Y0049586
X00301373Y0052586
X00331373Y0052586
X00361373Y0052586
X00271373Y0052586
X00241373Y0052586
X00211373Y0052586
X00181373Y0052586
X00151373Y0052586
X00121373Y0052586
X00091373Y0052586
X00106373Y0049586
X00136373Y0049586
X00166373Y0049586
X00196373Y0049586
X00226373Y0049586
X00256373Y0049586
X00241373Y0046586
X00211373Y0046586
X00181373Y0046586
X00151373Y0046586
X00121373Y0046586
X00091373Y0046586
X00061373Y0046586
X00076373Y0049586
X00106373Y0043586
X00136373Y0043586
X00166373Y0043586
X00181373Y0040586
X00151373Y0040586
X00121373Y0040586
X00091373Y0040586
X00061373Y0040586
X00031373Y0040586
X00046373Y0037586
X00076373Y0037586
X00106373Y0037586
X00136373Y0037586
X00166373Y0037586
X00181373Y0034586
X00151373Y0034586
X00121373Y0034586
X00091373Y0034586
X00061373Y0034586
X00031373Y0034586
X00046373Y0031586
X00076373Y0031586
X00136373Y0031586
X00166373Y0031586
X00226373Y0031586
X00256373Y0031586
X00256373Y0037586
X00226373Y0037586
X00241373Y0040586
X00256373Y0055586
X00226373Y0055586
X00196373Y0055586
X00166373Y0055586
X00136373Y0055586
X00151373Y0058586
X00181373Y0058586
X00211373Y0058586
X00241373Y0058586
X00256373Y0061586
X00226373Y0061586
X00196373Y0061586
X00016373Y0037586
X00016373Y0031586
T03
X00490374Y0034753
T04
X0060992Y00138938
X0062992Y00138938
X0064992Y00138938
X0040767Y00486664
X0040767Y00506664
T05
X0023876Y00186944
X0023876Y0023114
X00637374Y0030086
X00637374Y0032586
X00637374Y0035086
T06
X00280924Y0017272
X00306324Y0017272
X00331724Y0017272
X00357124Y0017272
X00382524Y0017272
X00407924Y0017272
X00433324Y0017272
T07
X0050308Y00399796
X0050308Y00428128
T08
X0058892Y00138938
X0067092Y00138938
T09
X00151373Y00084109
X00611124Y00453136
X00159766Y00570738
T10
X00058464Y0022326
X00058464Y0042846
T11
X00370684Y0003745
X00370684Y0061427
T12
X00664364Y0018863
X00664364Y0025663
T13
X00294584Y0009027
X00282314Y0055873
T14
X00461374Y0012448
X00454264Y0053134
X00105474Y0032176
M30
